#!OML:ASF H:\ManfredETheater\Project 1\Capture day 1\Session 1\subject.ASF
:FULLY-SPECIFIED
:DEGREES
304
root 1.86459 17.9983 -27.8565 -175.12 -1.14038 -178.527
lowerback 4.07532 -0.462706 0.581268
upperback -4.35451 -0.614211 2.20003
thorax -6.80836 -0.342523 2.04233
lowerneck -20.3147 -3.03221 -2.95613
upperneck 20.691 -3.37147 1.33911
head 10.0206 -1.53024 0.490787
rclavicle 4.72114e-016 -3.18055e-015
rhumerus -37.8141 -10.3974 -78.6962
rradius 35.8077
rwrist 1.18627
rhand -21.6302 -11.2734
rfingers 7.12502
rthumb 4.76582 -41.1998
lclavicle 4.72114e-016 -3.18055e-015
lhumerus -37.169 8.75649 84.7068
lradius 32.9769
lwrist -14.2137
lhand -2.6669 6.7302
lfingers 7.12502
lthumb 23.0336 35.3738
rfemur -10.6723 -0.463113 22.1428
rtibia 28.3013
rfoot -15.9606 -11.4245
rtoes -25.1518
lfemur -17.3355 -5.67392 -17.568
ltibia 38.2016
lfoot -22.3532 -0.443915
ltoes 10.0886
305
root 1.86028 17.996 -27.8833 -175.008 -1.09163 -178.523
lowerback 4.08463 -0.439775 0.630991
upperback -4.36463 -0.580577 2.19834
thorax -6.82601 -0.328795 2.00973
lowerneck -20.2751 -3.03349 -2.95455
upperneck 20.6914 -3.37428 1.3429
head 10.0136 -1.53055 0.492027
rclavicle -7.87684e-015 2.82274e-014
rhumerus -37.8876 -10.201 -78.7312
rradius 36.0001
rwrist 1.06676
rhand -21.6359 -11.2878
rfingers 7.12502
rthumb 4.76034 -41.2143
lclavicle -7.87684e-015 2.82274e-014
lhumerus -37.2273 8.59176 84.8955
lradius 33.029
lwrist -14.2041
lhand -2.44446 6.70661
lfingers 7.12502
lthumb 23.247 35.3234
rfemur -10.6944 -0.469056 22.1301
rtibia 28.2991
rfoot -16.052 -11.4031
rtoes -25.2646
lfemur -17.3606 -5.6715 -17.5843
ltibia 38.2241
lfoot -22.4498 -0.370057
ltoes 10.0898
306
root 1.85548 17.9935 -27.9105 -174.895 -1.03663 -178.517
lowerback 4.09813 -0.413183 0.683187
upperback -4.37361 -0.541671 2.19721
thorax -6.845 -0.312559 1.97584
lowerneck -20.2303 -3.03429 -2.94837
upperneck 20.6843 -3.3763 1.33902
head 10.0027 -1.5312 0.490001
rclavicle 3.64024e-015 -2.54444e-014
rhumerus -37.9563 -10.0378 -78.752
rradius 36.1602
rwrist 0.98332
rhand -21.5966 -11.3003
rfingers 7.12502
rthumb 4.79826 -41.226
lclavicle 3.64024e-015 -2.54444e-014
lhumerus -37.29 8.44827 85.0735
lradius 33.0928
lwrist -14.1591
lhand -2.30725 6.67004
lfingers 7.12502
lthumb 23.3787 35.2701
rfemur -10.7168 -0.471208 22.1173
rtibia 28.2979
rfoot -16.1443 -11.3821
rtoes -25.3923
lfemur -17.3847 -5.66142 -17.5995
ltibia 38.2472
lfoot -22.5491 -0.300602
ltoes 10.092
307
root 1.85 17.9908 -27.9384 -174.782 -0.983413 -178.517
lowerback 4.11681 -0.387211 0.731413
upperback -4.3822 -0.503654 2.19451
thorax -6.86645 -0.296524 1.94267
lowerneck -20.1863 -3.03267 -2.93193
upperneck 20.6713 -3.37574 1.32426
head 9.98935 -1.53133 0.48281
rclavicle -1.13804e-014 1.86858e-014
rhumerus -38.019 -9.90678 -78.7612
rradius 36.2914
rwrist 0.920263
rhand -21.513 -11.3178
rfingers 7.12502
rthumb 4.87902 -41.2416
lclavicle -1.13804e-014 1.86858e-014
lhumerus -37.3558 8.32942 85.2382
lradius 33.1644
lwrist -14.0838
lhand -2.25263 6.62538
lfingers 7.12502
lthumb 23.4311 35.2188
rfemur -10.7386 -0.485321 22.0938
rtibia 28.2997
rfoot -16.2445 -11.3559
rtoes -25.5331
lfemur -17.4058 -5.64681 -17.6237
ltibia 38.2685
lfoot -22.6508 -0.240655
ltoes 10.0997
308
root 1.84401 17.988 -27.9669 -174.668 -0.930863 -178.521
lowerback 4.13387 -0.361047 0.776525
upperback -4.38649 -0.465415 2.19127
thorax -6.88232 -0.280151 1.91051
lowerneck -20.1475 -3.03081 -2.91839
upperneck 20.6536 -3.37502 1.31293
head 9.97541 -1.53139 0.477254
rclavicle 7.82715e-015 -2.78299e-015
rhumerus -38.0746 -9.79835 -78.7636
rradius 36.4014
rwrist 0.857725
rhand -21.3947 -11.3534
rfingers 7.12502
rthumb 4.99321 -41.2746
lclavicle 7.82715e-015 -2.78299e-015
lhumerus -37.4188 8.23658 85.3902
lradius 33.2418
lwrist -13.9866
lhand -2.26687 6.58035
lfingers 7.12502
lthumb 23.4174 35.1755
rfemur -10.7593 -0.504988 22.0636
rtibia 28.3039
rfoot -16.3514 -11.3296
rtoes -25.6788
lfemur -17.4238 -5.62689 -17.6534
ltibia 38.2883
lfoot -22.755 -0.18997
ltoes 10.1137
309
root 1.83768 17.9852 -27.9958 -174.548 -0.879107 -178.529
lowerback 4.151 -0.333662 0.816682
upperback -4.39044 -0.42583 2.18734
thorax -6.8978 -0.262856 1.88023
lowerneck -20.105 -3.03014 -2.91161
upperneck 20.6255 -3.37547 1.30628
head 9.95732 -1.5322 0.474328
rclavicle 3.31722e-015 3.37934e-014
rhumerus -38.1247 -9.70771 -78.7611
rradius 36.4901
rwrist 0.781582
rhand -21.2564 -11.3967
rfingers 7.12502
rthumb 5.12682 -41.3146
lclavicle 3.31722e-015 3.37934e-014
lhumerus -37.4828 8.16372 85.5308
lradius 33.3257
lwrist -13.8737
lhand -2.3398 6.54281
lfingers 7.12502
lthumb 23.3474 35.1469
rfemur -10.7862 -0.522679 22.0276
rtibia 28.3106
rfoot -16.461 -11.3107
rtoes -25.8385
lfemur -17.4464 -5.6034 -17.6878
ltibia 38.3064
lfoot -22.8588 -0.146411
ltoes 10.1301
